<svg id="Capa_1" data-name="Capa 1" xmlns="http://www.w3.org/2000/svg" viewBox="0 0 1073.54 136.85"><defs><style>.cls-1{fill:#11476e;}</style></defs><title>logo_horizontal_blue</title><path class="cls-1" d="M171.54,127.11a16.17,16.17,0,0,1,16,8.74c3.73,7.33,11.69,12.24,26.35,12.24h48a3.4,3.4,0,0,0,3.41-3.42h0a3.6,3.6,0,0,0-3.62-3.6H217.16a3.63,3.63,0,0,1,0-7.26h44.46a3.61,3.61,0,0,0,3.62-3.61v0a3.61,3.61,0,0,0-3.62-3.61H217.16a3.63,3.63,0,0,1,0-7.26h44.46a3.6,3.6,0,0,0,3.62-3.61v0a3.6,3.6,0,0,0-3.62-3.6H217.16a3.63,3.63,0,1,1,0-7.26h44.46a3.61,3.61,0,0,0,3.62-3.61,3.42,3.42,0,0,0-3.41-3.42h-48c-14.66,0-22.62,4.91-26.35,12.24a16.14,16.14,0,0,1-16,8.74m93.7,25.94" transform="translate(-45.45 -29.29)"/><rect class="cls-1" x="154.92" y="112.36" width="18.6" height="21.13" rx="1.55" ry="1.55" transform="translate(241.68 -70.58) rotate(90)"/><path class="cls-1" d="M104.61,132.25a266.79,266.79,0,0,1,55.8-3.65V117.24a266.79,266.79,0,0,1-55.8-3.65c-10.24-1.78-20.44-4.17-31-4.19s-22,2.92-26.86,9.25c0,0-2.89,5.7,0,8.54,6,5.88,16.28,9.28,26.86,9.25S94.37,134,104.61,132.25Zm-41.39-9.33c0-2.8,6.43-5.07,14.36-5.07S92,120.12,92,122.92,85.52,128,77.58,128,63.22,125.72,63.22,122.92Z" transform="translate(-45.45 -29.29)"/><path class="cls-1" d="M148.41,58.14a2.48,2.48,0,0,0-2.48-2.47h-96A4.34,4.34,0,0,0,45.59,60,4.66,4.66,0,0,0,49,64.49l52.42,15a53.42,53.42,0,0,0,45-7.35,4.7,4.7,0,0,0,2-3.87m0-10.17" transform="translate(-45.45 -29.29)"/><rect class="cls-1" x="143.91" y="53.65" width="18.59" height="21.13" rx="1.55" ry="1.55" transform="translate(43.53 188.14) rotate(-90)"/><path class="cls-1" d="M205.94,54.89a267.33,267.33,0,0,1-55.79,3.65V69.9a266.65,266.65,0,0,1,55.79,3.65c10.25,1.78,20.44,4.17,31,4.19s22-2.92,26.86-9.25c0,0,2.89-5.7,0-8.54-6-5.88-16.28-9.28-26.86-9.25S216.19,53.11,205.94,54.89Zm41.4,9.33c0,2.8-6.43,5.07-14.37,5.07S218.61,67,218.61,64.22,225,59.15,233,59.15,247.34,61.42,247.34,64.22Z" transform="translate(-45.45 -29.29)"/><path class="cls-1" d="M375.41,69.18c1.63,6,4.41,12.26,7.36,18.64,5.06,11.12,10.3,22.72,10.3,35.31,0,25.67-19.13,43-43.82,43C327.5,166.13,312,150.93,312,131c0-19.45,15.37-35.64,33-35.64,13.57,0,22.89,11,22.89,23.54a11.2,11.2,0,0,1-.33,3,3.37,3.37,0,0,1-3.11,2.45,3.47,3.47,0,0,1-3.59-3.76c1-9.48-5.73-18.31-15.86-18.31-14.39,0-26.16,13.73-26.16,29.26,0,16.35,13.4,27.8,30.9,27.8,21.58,0,36.46-15.7,36.46-36.14,0-11.28-4.91-22.07-9.65-32.53-3.1-6.87-6.05-13.57-7.85-20.11-2.45.16-5.06.32-8,.32-21.58,0-37.44-9.48-46.76-28.61a4.92,4.92,0,0,1-.32-1.63,3.44,3.44,0,0,1,6.54-1.31c8,16.68,21.58,24.69,40.22,24.69,2.61,0,4.9-.17,7-.33a35.77,35.77,0,0,1-.33-4.25c0-11.44,6.7-23.71,17.82-23.71,6.87,0,10.46,5.4,10.14,12.1C394.54,57.41,387.51,65.42,375.41,69.18Zm8.83-26.65c-6.71,0-10.14,9.32-10.14,16.68a20.13,20.13,0,0,0,.16,3.1c13.57-5.07,13.9-11.93,13.9-14.55C388.16,44.33,386.85,42.53,384.24,42.53Z" transform="translate(-45.45 -29.29)"/><path class="cls-1" d="M512.09,124.12C506,137.85,497.05,158,482.5,158c-8,0-11.94-5.72-11.94-13.73,0-14.88,12.76-35.16,12.76-48.56,0-4.74-2-8.5-8.51-8.5-9.48,0-22.23,21.41-27,34.66-.33,1-11.28,33-11.12,32.7a3.33,3.33,0,0,1-3.27,2.28,3.43,3.43,0,0,1-3.27-4.57c.16-.49,10.95-32.54,11.12-32.87,3.43-10,5.88-17.33,5.88-23.05,0-6-2.29-9.15-8.17-9.15-4.58,0-9.48,5.23-14.23,11.93-2.94,4.41-12.75,22.4-13.73,25l-11.12,31.55a3.55,3.55,0,0,1-4.41,2.29,3.47,3.47,0,0,1-2.13-4.42c8.34-23.54,16.84-47.08,25.18-70.63a3.34,3.34,0,0,1,3.27-2.29,3.44,3.44,0,0,1,3.27,4.58,35.44,35.44,0,0,0-1.63,4.42c4.74-5.56,10-9.32,15.53-9.32,9.81,0,15,6.37,15,15,4.74-7.52,13.08-15,20.76-15,11.78,0,15.37,6.7,15.37,15.37,0,15.69-12.59,34.5-12.59,48.56,0,4.74,1.48,6.86,4.91,6.86,8,0,14.55-9.64,23.38-30.24a3.57,3.57,0,0,1,3.27-2.13,3.69,3.69,0,0,1,3.43,3.43A8,8,0,0,1,512.09,124.12Z" transform="translate(-45.45 -29.29)"/><path class="cls-1" d="M578.47,122.15a4.85,4.85,0,0,1-.32,1.47l-.17.5c-6.21,13.73-15,33.84-29.75,33.84-7.85,0-11.78-5.72-11.78-13.73C529.91,153.38,523.05,158,516,158c-9.16,0-13.41-7.85-13.41-17.66,0-21.42,16.51-59.68,36.13-59.68,6.87,0,11.94,2.78,14.88,8.67,1-2.78,2-5.23,2.78-7.36a3.41,3.41,0,0,1,3.27-2.12,3.33,3.33,0,0,1,3.11,4.58l-8.18,21.9c-5.88,16.52-11.28,30.74-11.28,37.94,0,4.9,1.47,6.86,4.91,6.86,10.13,0,18-17.66,23.38-29.75l.16-.49a3.53,3.53,0,0,1,3.11-2.13,4.59,4.59,0,0,1,1.47.33A3.51,3.51,0,0,1,578.47,122.15Zm-33.19-12.26,3.93-10.46c-.33-7.52-4.58-11.94-10.47-11.94-15,.33-28.94,35.48-29.26,51.67,0,7.19,1.47,11.93,6.37,11.93C529.1,151.09,538.74,126.57,545.28,109.89Z" transform="translate(-45.45 -29.29)"/><path class="cls-1" d="M638.64,122.15a4.59,4.59,0,0,1-.33,1.47C627.69,148,619.51,158,608.39,158h-.16c-7.68,0-11.61-5.72-11.61-13.73a38.13,38.13,0,0,1,1.64-10.63c1.31-5.23,8.5-27,10-30.58-12.43-4.08-14.22-4.74-17.82-6.54-.65,2-1.8,4.26-14.88,32.87a3.3,3.3,0,0,1-2.94,2A4.68,4.68,0,0,1,571,131a3.67,3.67,0,0,1-2-3.1,4.71,4.71,0,0,1,.33-1.48L582.4,98l2-4.91c-4.9-3.43-8.34-7.68-8.34-13.73,0-6.71,4.74-10.63,10-10.63,5.88,0,9.48,4.25,9.48,10.79,0,2.62-.66,4.09-2.62,10.46a127.74,127.74,0,0,0,14.88,5.73c2.29.65,4.41,1.3,6.21,2a3.69,3.69,0,0,1,2,4.74c-2.13,5.4-10,28.78-11,32.86a39.41,39.41,0,0,0-1.47,9c0,4.08,1.31,6.86,4.9,6.86,8,0,14.23-9.15,23.55-30.24a3.52,3.52,0,0,1,3.1-2.13,4.65,4.65,0,0,1,1.48.33A3.53,3.53,0,0,1,638.64,122.15ZM586,75.56a2.83,2.83,0,0,0-3.11,3.1,10.12,10.12,0,0,0,3.92,7.52c.82-2.28,1.8-5.23,1.8-6.86C588.61,76.54,587.3,75.56,586,75.56Z" transform="translate(-45.45 -29.29)"/><path class="cls-1" d="M672.65,122.15a4.59,4.59,0,0,1-.33,1.47C662.84,144.06,653.68,158,638.64,158c-7.85,0-12.1-5.89-12.1-13.73,0-6,4.09-20.28,9.32-33.69l8.34-23.37H633.9a3.36,3.36,0,0,1-3.43-3.44,3.45,3.45,0,0,1,3.43-3.43h12.59c.33-.66,8.34-23.71,8.5-24.36a3.34,3.34,0,0,1,3.27-2.29,3.44,3.44,0,0,1,3.27,4.58c.49-1-6.54,19-7.68,22.07H664.8a3.46,3.46,0,0,1,3.44,3.43,3.37,3.37,0,0,1-3.44,3.44H651.4c-1,3.1-3.77,10.62-9.16,25.83-6.7,19-8.83,26.48-8.83,31.23,0,4.41,2,6.86,5.23,6.86,11.77,0,19.62-13.57,27.31-30.41a3.93,3.93,0,0,1,3.27-2,4.59,4.59,0,0,1,1.47.33A3.67,3.67,0,0,1,672.65,122.15Z" transform="translate(-45.45 -29.29)"/><path class="cls-1" d="M799.36,30.76c5.72,0,9.65,3.59,9.65,8.83,0,7.68-11.78,13.89-23.39,17-9.31,23.38-24.85,76.68-24.85,86,0,9.81,3.6,14.55,11.28,14.88,9.49,0,19.46-15.53,28.13-34.17,4.9-10.3,24-63.28,25.67-70.8a3.49,3.49,0,1,1,6.7,2c-12.92,38.74-24,71.12-24,87.3,0,9.16,2.62,15.37,10.14,15.37,17.17,0,27.14-31.39,37-62.62,10.47-32.7,20.6-65.23,41.53-65.23a3.49,3.49,0,0,1,3.6,3.43,3.35,3.35,0,0,1-3.44,3.43C881.44,36,872,66.07,862.14,96.65c-10.63,33.52-21.25,67.52-43.49,67.52-11.61,0-17-9.64-17-22.4,0-2.12.16-4.41.33-6.7-8.67,16.68-19,29.27-29.93,29.27-12.42-.33-18.14-8.34-18.14-21.75,0-10.46,12.59-54.28,23.7-84.53-3.27.66-6.54,1.15-10,1.64C747,63,719.08,66.89,719.08,86.51c0,8.67,5.72,14.72,12.92,14.72a3.21,3.21,0,0,1,3.43,3.27,3.52,3.52,0,0,1-3.6,3.59c-11.44,0-19.94-9.64-19.62-21.91C712.21,61.66,743,56.59,766.5,53c4.9-.81,9.64-1.3,13.89-2.12C784,41.39,791,30.76,799.36,30.76Zm2.29,8.83a2.23,2.23,0,0,0-2.29-2.29c-3.6,0-7.85,5.56-10.46,11.12C795.76,46.94,801.65,42.2,801.65,39.59Z" transform="translate(-45.45 -29.29)"/><path class="cls-1" d="M942.91,122.15a4.85,4.85,0,0,1-.32,1.47l-.17.5c-6.21,13.73-15,33.84-29.75,33.84-7.85,0-11.78-5.72-11.78-13.73-6.54,9.15-13.4,13.73-20.43,13.73-9.16,0-13.41-7.85-13.41-17.66,0-21.42,16.51-59.68,36.13-59.68,6.87,0,11.94,2.78,14.88,8.67,1-2.78,2-5.23,2.78-7.36a3.41,3.41,0,0,1,3.27-2.12,3.33,3.33,0,0,1,3.11,4.58L919,106.29c-5.88,16.52-11.28,30.74-11.28,37.94,0,4.9,1.47,6.86,4.91,6.86,10.13,0,18-17.66,23.38-29.75l.16-.49a3.53,3.53,0,0,1,3.11-2.13,4.59,4.59,0,0,1,1.47.33A3.53,3.53,0,0,1,942.91,122.15Zm-33.19-12.26,3.93-10.46c-.33-7.52-4.58-11.94-10.47-11.94-15,.33-28.94,35.48-29.26,51.67,0,7.19,1.47,11.93,6.37,11.93C893.54,151.09,903.18,126.57,909.72,109.89Z" transform="translate(-45.45 -29.29)"/><path class="cls-1" d="M973,122.15a4.87,4.87,0,0,1-.33,1.47C964.82,141.28,956.32,158,942.59,158c-7.85,0-12.1-6.21-11.77-13.73.49-12.76,12.09-42.68,19.29-61.32a3.28,3.28,0,0,1,3.1-2.29c2.13,0,4.26,1.64,3.27,4.42-15.85,44.63-18.8,52.16-18.8,59.19,0,4.74,1.47,6.86,4.91,6.86,10.13,0,17.66-16.84,23.7-30.24a3.78,3.78,0,0,1,3.27-2.13,3.72,3.72,0,0,1,1.31.33A3.35,3.35,0,0,1,973,122.15ZM954.36,66.73a5.65,5.65,0,0,1,5.72-5.56,5.56,5.56,0,0,1,0,11.12A5.66,5.66,0,0,1,954.36,66.73Z" transform="translate(-45.45 -29.29)"/><path class="cls-1" d="M1007,122.15a4.85,4.85,0,0,1-.32,1.47C997.19,144.06,988,158,973,158c-7.85,0-12.1-5.89-12.1-13.73,0-6,4.09-20.28,9.32-33.69l8.34-23.37H968.25a3.36,3.36,0,0,1-3.43-3.44,3.45,3.45,0,0,1,3.43-3.43h12.59c.33-.66,8.34-23.71,8.51-24.36a3.33,3.33,0,0,1,3.27-2.29,3.44,3.44,0,0,1,3.27,4.58c.49-1-6.54,19-7.69,22.07h11a3.45,3.45,0,0,1,3.43,3.43,3.36,3.36,0,0,1-3.43,3.44H985.75c-1,3.1-3.76,10.62-9.16,25.83-6.7,19-8.83,26.48-8.83,31.23,0,4.41,2,6.86,5.24,6.86,11.77,0,19.62-13.57,27.3-30.41a3.94,3.94,0,0,1,3.27-2,4.59,4.59,0,0,1,1.47.33A3.65,3.65,0,0,1,1007,122.15Z" transform="translate(-45.45 -29.29)"/><path class="cls-1" d="M1058.83,122.32a3.87,3.87,0,0,1-.32,1.3c-10.63,23.55-23.06,34.34-39.57,34.34-13.57,0-21.75-9-21.42-22.4,1-20.93,18-54.94,37.28-54.94,8.17,0,13.9,4.26,13.9,12.1,0,17.33-24.37,27.8-42.51,32.21a47.35,47.35,0,0,0-1.8,10.79c-.33,9.32,4.9,15.05,14.71,15.37,13.41.33,23.87-9.15,33-30.24a3.7,3.7,0,0,1,4.58-1.8A3.74,3.74,0,0,1,1058.83,122.32Zm-17-29.6c0-4.41-3.43-5.23-7-5.23-11.28,0-20.76,17-26,29.59C1022.37,112.83,1041.83,104.82,1041.83,92.72Z" transform="translate(-45.45 -29.29)"/><path class="cls-1" d="M1119,122.15a4.87,4.87,0,0,1-.33,1.47C1108,148,1099.87,158,1088.75,158h-.16c-7.69,0-11.61-5.72-11.61-13.73a38.13,38.13,0,0,1,1.64-10.63c1.3-5.23,8.5-27,10-30.58-12.43-4.08-14.23-4.74-17.82-6.54-.66,2-1.8,4.26-14.88,32.87a3.31,3.31,0,0,1-2.94,2,4.68,4.68,0,0,1-1.64-.33,3.67,3.67,0,0,1-2-3.1,4.71,4.71,0,0,1,.33-1.48L1062.76,98l2-4.91c-4.91-3.43-8.34-7.68-8.34-13.73,0-6.71,4.74-10.63,10-10.63,5.89,0,9.48,4.25,9.48,10.79,0,2.62-.65,4.09-2.61,10.46a127.74,127.74,0,0,0,14.88,5.73c2.29.65,4.41,1.3,6.21,2a3.68,3.68,0,0,1,2,4.74c-2.12,5.4-10,28.78-11,32.86a39.41,39.41,0,0,0-1.47,9c0,4.08,1.3,6.86,4.9,6.86,8,0,14.23-9.15,23.54-30.24a3.54,3.54,0,0,1,3.11-2.13,4.59,4.59,0,0,1,1.47.33A3.52,3.52,0,0,1,1119,122.15Zm-52.65-46.59a2.83,2.83,0,0,0-3.1,3.1,10.12,10.12,0,0,0,3.92,7.52c.82-2.28,1.8-5.23,1.8-6.86C1069,76.54,1067.66,75.56,1066.35,75.56Z" transform="translate(-45.45 -29.29)"/></svg>